<?xml version="1.0" encoding="UTF-8"?>
<!-- Generated by Pixelmator Pro 3.5.3 -->
<svg width="105" height="117" viewBox="0 0 105 117" xmlns="http://www.w3.org/2000/svg">
    <g id="Group">
        <g id="Layer1">
            <path id="Path" fill="#ffffff" stroke="none" d="M 50.611664 116.999992 C 48.760246 116.999992 47.032257 116.506271 45.427689 115.518845 L 4.573036 89.845833 C 1.610756 87.994408 -0.117233 84.661858 0.006195 81.205872 L 1.734184 32.945541 C 1.857613 29.489548 3.832466 26.280426 6.918167 24.675858 L 49.624245 2.088547 C 52.709946 0.483978 56.412781 0.607407 59.375061 2.458817 L 100.229706 28.131836 C 103.191986 29.983261 104.919968 33.315826 104.796555 36.771805 L 103.068558 85.032135 C 102.945145 88.488121 100.970276 91.69725 97.884583 93.301819 L 55.178505 115.88913 C 53.820801 116.629707 52.216232 116.999992 50.611664 116.999992 Z M 54.191078 4.680527 C 53.203659 4.680527 52.216232 4.927383 51.352242 5.421097 L 8.646149 28.008408 C 6.794731 28.99585 5.437027 30.970688 5.437027 33.192383 L 3.70903 81.452736 C 3.585602 83.674431 4.696457 85.649277 6.547874 86.88356 L 47.402534 112.55658 C 49.25396 113.667427 51.599091 113.790863 53.450508 112.803436 L 96.156601 90.216118 C 98.008011 89.228691 99.365707 87.253845 99.365707 85.032135 L 101.093719 36.771805 C 101.217133 34.550095 100.106293 32.575241 98.254868 31.340973 L 57.4002 5.667953 C 56.412781 5.050812 55.301933 4.680527 54.191078 4.680527 Z"/>
            <path id="path1" fill="#ffffff" stroke="none" d="M 12.842705 33.315826 L 49.37738 55.656281 C 50.241386 56.149994 51.352242 56.273422 52.216232 55.779709 L 92.453766 36.40152 C 94.675446 35.414093 93.934891 32.081543 91.466339 31.958099 L 13.830132 29.489548 C 11.855286 29.366119 11.114708 32.204971 12.842705 33.315826 Z"/>
            <path id="path2" fill="#ffffff" stroke="none" d="M 80.97496 25.169571 L 55.301933 9.494217 C 54.684792 9.123932 53.944221 9.123932 53.327087 9.370789 L 25.185501 23.071289 C 23.704369 23.811859 24.198082 26.033569 25.802643 26.156998 L 80.234375 27.884995 C 81.715515 27.884995 82.209229 26.033569 80.97496 25.169571 Z"/>
            <path id="path3" fill="#ffffff" stroke="none" d="M 67.151016 101.448059 L 93.811462 87.253845 C 94.428589 86.88356 94.798889 86.266418 94.922318 85.525848 L 97.637726 54.051712 C 97.761154 52.32373 95.539459 51.58316 94.675446 53.064301 L 65.299591 99.349792 C 64.435608 100.707497 65.793304 102.188637 67.151016 101.448059 Z"/>
            <path id="path4" fill="#ffffff" stroke="none" d="M 94.305176 39.610641 L 53.573936 59.605972 C 52.586517 60.099686 51.969376 61.08712 51.84594 62.19796 L 50.241386 107.249176 C 50.117958 109.347443 52.833374 110.211456 54.06765 108.483452 L 96.773743 42.449478 C 97.761154 40.721497 96.033157 38.746643 94.305176 39.610641 Z"/>
            <path id="path5" fill="#ffffff" stroke="none" d="M 46.661972 81.205872 L 48.143105 62.321396 C 48.266541 60.716827 47.525963 59.235695 46.168259 58.495117 L 26.913498 47.016327 C 24.938652 45.905472 22.716942 48.003738 23.827797 50.10202 L 42.465416 82.193298 C 43.576271 84.044716 46.415123 83.304153 46.661972 81.205872 Z"/>
            <path id="path6" fill="#ffffff" stroke="none" d="M 7.905586 37.88266 L 6.918167 79.107597 C 6.918167 81.3293 8.029007 83.427582 9.880432 84.661858 L 42.218567 105.027466 C 45.797981 107.125755 49.747673 103.176048 47.649399 99.596642 L 11.485001 37.018661 C 10.497566 35.290665 8.029007 36.031235 7.905586 37.88266 Z"/>
        </g>
    </g>
</svg>
