<?xml version="1.0" encoding="UTF-8"?>
<!-- Generated by Pixelmator Pro 3.5.3 -->
<svg width="399" height="117" viewBox="0 0 399 117" xmlns="http://www.w3.org/2000/svg">
    <g id="Group">
        <g id="Layer1">
            <path id="Path" fill="#000000" stroke="none" d="M 50.611664 116.999992 C 48.760246 116.999992 47.032257 116.506271 45.427689 115.518845 L 4.573036 89.845833 C 1.610756 87.994408 -0.117233 84.661858 0.006195 81.205872 L 1.734184 32.945541 C 1.857613 29.489548 3.832466 26.280426 6.918167 24.675858 L 49.624245 2.088547 C 52.709946 0.483978 56.412781 0.607407 59.375061 2.458817 L 100.229706 28.131836 C 103.191986 29.983261 104.919968 33.315826 104.796555 36.771805 L 103.068558 85.032135 C 102.945145 88.488121 100.970276 91.69725 97.884583 93.301819 L 55.178505 115.88913 C 53.820801 116.629707 52.216232 116.999992 50.611664 116.999992 Z M 54.191078 4.680527 C 53.203659 4.680527 52.216232 4.927383 51.352242 5.421097 L 8.646149 28.008408 C 6.794731 28.99585 5.437027 30.970688 5.437027 33.192383 L 3.70903 81.452736 C 3.585602 83.674431 4.696457 85.649277 6.547874 86.88356 L 47.402534 112.55658 C 49.25396 113.667427 51.599091 113.790863 53.450508 112.803436 L 96.156601 90.216118 C 98.008011 89.228691 99.365707 87.253845 99.365707 85.032135 L 101.093719 36.771805 C 101.217133 34.550095 100.106293 32.575241 98.254868 31.340973 L 57.4002 5.667953 C 56.412781 5.050812 55.301933 4.680527 54.191078 4.680527 Z"/>
            <path id="path1" fill="#000000" stroke="none" d="M 12.842705 33.315826 L 49.37738 55.656281 C 50.241386 56.149994 51.352242 56.273422 52.216232 55.779709 L 92.453766 36.40152 C 94.675446 35.414093 93.934891 32.081543 91.466339 31.958099 L 13.830132 29.489548 C 11.855286 29.366119 11.114708 32.204971 12.842705 33.315826 Z"/>
            <path id="path2" fill="#000000" stroke="none" d="M 80.97496 25.169571 L 55.301933 9.494217 C 54.684792 9.123932 53.944221 9.123932 53.327087 9.370789 L 25.185501 23.071289 C 23.704369 23.811859 24.198082 26.033569 25.802643 26.156998 L 80.234375 27.884995 C 81.715515 27.884995 82.209229 26.033569 80.97496 25.169571 Z"/>
            <path id="path3" fill="#000000" stroke="none" d="M 67.151016 101.448059 L 93.811462 87.253845 C 94.428589 86.88356 94.798889 86.266418 94.922318 85.525848 L 97.637726 54.051712 C 97.761154 52.32373 95.539459 51.58316 94.675446 53.064301 L 65.299591 99.349792 C 64.435608 100.707497 65.793304 102.188637 67.151016 101.448059 Z"/>
            <path id="path4" fill="#000000" stroke="none" d="M 94.305176 39.610641 L 53.573936 59.605972 C 52.586517 60.099686 51.969376 61.08712 51.84594 62.19796 L 50.241386 107.249176 C 50.117958 109.347443 52.833374 110.211456 54.06765 108.483452 L 96.773743 42.449478 C 97.761154 40.721497 96.033157 38.746643 94.305176 39.610641 Z"/>
            <path id="path5" fill="#000000" stroke="none" d="M 46.661972 81.205872 L 48.143105 62.321396 C 48.266541 60.716827 47.525963 59.235695 46.168259 58.495117 L 26.913498 47.016327 C 24.938652 45.905472 22.716942 48.003738 23.827797 50.10202 L 42.465416 82.193298 C 43.576271 84.044716 46.415123 83.304153 46.661972 81.205872 Z"/>
            <path id="path6" fill="#000000" stroke="none" d="M 7.905586 37.88266 L 6.918167 79.107597 C 6.918167 81.3293 8.029007 83.427582 9.880432 84.661858 L 42.218567 105.027466 C 45.797981 107.125755 49.747673 103.176048 47.649399 99.596642 L 11.485001 37.018661 C 10.497566 35.290665 8.029007 36.031235 7.905586 37.88266 Z"/>
        </g>
    </g>
    <g id="g1">
        <g id="g2">
            <g id="g3">
                <path id="path7" fill="#000000" stroke="none" d="M 144.830154 94.044319 L 144.830154 70.124321 L 149.270157 70.124321 L 149.270157 94.044319 L 144.830154 94.044319 Z M 132.450165 70.124321 L 132.450165 94.044319 L 128.010162 94.044319 L 128.010162 70.124321 L 132.450165 70.124321 Z M 145.170151 79.994324 L 145.170151 83.794319 L 132.080154 83.794319 L 132.080154 79.994324 L 145.170151 79.994324 Z M 172.130157 94.384315 L 172.130157 94.384315 C 168.850159 94.384315 166.280156 93.460983 164.420151 91.614319 C 162.566818 89.774317 161.640152 87.110985 161.640152 83.624321 L 161.640152 83.624321 L 161.640152 70.124321 L 166.080154 70.124321 L 166.080154 83.454323 C 166.080154 85.914319 166.610153 87.700986 167.670151 88.814323 C 168.730158 89.934324 170.226827 90.494324 172.160156 90.494324 L 172.160156 90.494324 C 174.100159 90.494324 175.593491 89.934324 176.640152 88.814323 C 177.686824 87.700986 178.210159 85.914319 178.210159 83.454323 L 178.210159 83.454323 L 178.210159 70.124321 L 182.590164 70.124321 L 182.590164 83.624321 C 182.590164 87.110985 181.660161 89.774317 179.800156 91.614319 C 177.946823 93.460983 175.390157 94.384315 172.130157 94.384315 Z M 206.850159 94.044319 L 194.960175 94.044319 L 194.960175 70.124321 L 206.170166 70.124321 C 209.036825 70.124321 211.22349 70.687655 212.730164 71.814323 C 214.230164 72.940987 214.980164 74.450986 214.980164 76.344322 L 214.980164 76.344322 C 214.980164 77.617653 214.683492 78.704318 214.090149 79.604317 C 213.503499 80.504321 212.713501 81.200989 211.720154 81.694321 C 210.726827 82.180984 209.650167 82.424316 208.490173 82.424316 L 208.490173 82.424316 L 209.110168 81.194321 C 210.450155 81.194321 211.65682 81.440987 212.730164 81.934319 C 213.796834 82.420987 214.643504 83.130989 215.270172 84.064323 C 215.89684 84.997653 216.210175 86.160985 216.210175 87.554321 L 216.210175 87.554321 C 216.210175 89.600988 215.426839 91.194321 213.860168 92.33432 C 212.286825 93.474319 209.950155 94.044319 206.850159 94.044319 L 206.850159 94.044319 Z M 199.400146 73.604317 L 199.400146 90.554321 L 206.58017 90.554321 C 208.240163 90.554321 209.513489 90.280988 210.400146 89.734322 C 211.293498 89.187655 211.740173 88.310987 211.740173 87.104317 L 211.740173 87.104317 C 211.740173 85.924319 211.293498 85.054321 210.400146 84.494324 C 209.513489 83.934321 208.240163 83.65432 206.58017 83.65432 L 206.58017 83.65432 L 199.06015 83.65432 L 199.06015 80.204323 L 205.690155 80.204323 C 207.236827 80.204323 208.426829 79.93099 209.260162 79.384323 C 210.093496 78.837657 210.510162 78.017654 210.510162 76.924316 L 210.510162 76.924316 C 210.510162 75.804316 210.093496 74.970983 209.260162 74.424316 C 208.426829 73.87765 207.236827 73.604317 205.690155 73.604317 L 205.690155 73.604317 L 199.400146 73.604317 Z"/>
            </g>
        </g>
    </g>
    <g id="g4">
        <g id="g5">
            <g id="g6">
                <path id="path8" fill="#000000" stroke="none" d="M 131.630157 57.940704 L 128.010162 57.940704 L 128.010162 23.770691 L 131.630157 23.770691 L 131.630157 57.940704 Z M 155.150162 57.940704 L 151.540161 57.940704 L 151.540161 23.770691 L 154.520157 23.770691 L 178.090164 53.450699 L 176.530167 53.450699 L 176.530167 23.770691 L 180.090164 23.770691 L 180.090164 57.940704 L 177.120163 57.940704 L 153.590164 28.260696 L 155.150162 28.260696 L 155.150162 57.940704 Z M 210.260162 57.940704 L 206.650146 57.940704 L 206.650146 26.890701 L 194.640167 26.890701 L 194.640167 23.770691 L 222.270172 23.770691 L 222.270172 26.890701 L 210.260162 26.890701 L 210.260162 57.940704 Z M 240.030151 42.120697 L 240.030151 39.050705 L 258.090149 39.050705 L 258.090149 42.120697 L 240.030151 42.120697 Z M 240.420166 26.890701 L 240.420166 54.810699 L 260.970154 54.810699 L 260.970154 57.940704 L 236.81015 57.940704 L 236.81015 23.770691 L 260.240143 23.770691 L 260.240143 26.890701 L 240.420166 26.890701 Z M 293.240143 58.230698 L 293.240143 58.230698 C 290.633494 58.230698 288.2335 57.8007 286.040161 56.940704 C 283.840149 56.074036 281.936818 54.860703 280.33017 53.300705 C 278.716827 51.740697 277.463491 49.904027 276.57016 47.790695 C 275.676829 45.6707 275.230164 43.357366 275.230164 40.850693 L 275.230164 40.850693 C 275.230164 38.350693 275.676829 36.040695 276.57016 33.9207 C 277.463491 31.807368 278.72349 29.970698 280.350159 28.41069 C 281.976827 26.850693 283.890157 25.63736 286.090149 24.770691 C 288.283488 23.910695 290.683492 23.480698 293.290161 23.480698 L 293.290161 23.480698 C 295.890157 23.480698 298.273488 23.887365 300.440155 24.700699 C 302.600149 25.514033 304.446818 26.750697 305.980164 28.41069 L 305.980164 28.41069 L 303.730164 30.700699 C 302.296834 29.26737 300.720164 28.244034 299.000153 27.630692 C 297.273488 27.010696 295.416819 26.700699 293.430145 26.700699 L 293.430145 26.700699 C 291.316823 26.700699 289.373494 27.0507 287.600159 27.750702 C 285.826823 28.450704 284.280151 29.444036 282.960144 30.730698 C 281.64681 32.010696 280.623484 33.507365 279.890167 35.220703 C 279.15683 36.927368 278.790161 38.804031 278.790161 40.850693 L 278.790161 40.850693 C 278.790161 42.870692 279.15683 44.744029 279.890167 46.470703 C 280.623484 48.190704 281.64681 49.694036 282.960144 50.980698 C 284.280151 52.26737 285.826823 53.260701 287.600159 53.960693 C 289.373494 54.660695 291.300161 55.010696 293.380157 55.010696 L 293.380157 55.010696 C 295.333486 55.010696 297.180155 54.717361 298.920166 54.130692 C 300.660156 53.544032 302.263489 52.5507 303.730164 51.150696 L 303.730164 51.150696 L 305.780151 53.890701 C 304.153483 55.317368 302.250153 56.397364 300.07016 57.130692 C 297.890167 57.864029 295.613495 58.230698 293.240143 58.230698 Z M 305.780151 53.890701 L 302.32016 53.450699 L 302.32016 40.850693 L 305.780151 40.850693 L 305.780151 53.890701 Z M 328.380157 57.940704 L 324.770172 57.940704 L 324.770172 23.770691 L 337.56015 23.770691 C 340.453481 23.770691 342.940155 24.234029 345.020172 25.160706 C 347.106822 26.087372 348.710154 27.4207 349.83017 29.16069 C 350.956838 30.907364 351.520172 33.017365 351.520172 35.490692 L 351.520172 35.490692 C 351.520172 37.897359 350.956838 39.970693 349.83017 41.710693 C 348.710154 43.450694 347.106822 44.784027 345.020172 45.710693 C 342.940155 46.63736 340.453481 47.100693 337.56015 47.100693 L 337.56015 47.100693 L 326.770172 47.100693 L 328.380157 45.440704 L 328.380157 57.940704 Z M 352.050171 57.940704 L 348.100159 57.940704 L 339.31015 45.540695 L 343.220154 45.540695 L 352.050171 57.940704 Z M 328.380157 25.190704 L 328.380157 45.740692 L 326.770172 44.030701 L 337.460144 44.030701 C 340.873494 44.030701 343.466827 43.280701 345.240143 41.780701 C 347.013479 40.287364 347.900146 38.190694 347.900146 35.490692 L 347.900146 35.490692 C 347.900146 32.757365 347.013479 30.640701 345.240143 29.140701 C 343.466827 27.640701 340.873494 26.890701 337.460144 26.890701 L 337.460144 26.890701 L 326.770172 26.890701 L 328.380157 25.190704 Z M 367.140167 57.940704 L 363.380157 57.940704 L 379.000153 23.770691 L 382.56015 23.770691 L 398.180176 57.940704 L 394.370178 57.940704 L 380.020172 25.870697 L 381.490173 25.870697 L 367.140167 57.940704 Z M 391.540161 48.810699 L 369.530151 48.810699 L 370.600159 45.880692 L 390.470154 45.880692 L 391.540161 48.810699 Z"/>
            </g>
        </g>
    </g>
</svg>
